<?xml version="1.0" standalone="no"?>
<!DOCTYPE svg PUBLIC "-//W3C//DTD SVG 20010904//EN"
 "http://www.w3.org/TR/2001/REC-SVG-20010904/DTD/svg10.dtd">
<svg version="1.0" xmlns="http://www.w3.org/2000/svg"
 width="2048.000000pt" height="2048.000000pt" viewBox="0 0 2048.000000 2048.000000"
 preserveAspectRatio="xMidYMid meet">
<metadata>
Created by potrace 1.14, written by Peter Selinger 2001-2017
</metadata>
<g transform="translate(0.000000,2048.000000) scale(0.100000,-0.100000)"
fill="#000000" stroke="none">
<path d="M6195 17869 l-610 -289 -3 -7080 -2 -7080 750 0 750 0 2 6286 3 6285
1405 -1151 1405 -1151 5 -5136 5 -5137 608 -288 c529 -251 610 -287 626 -276
10 7 923 751 2029 1653 l2012 1640 -3 815 -2 815 -1665 1358 c-916 747 -1666
1361 -1667 1365 -1 4 749 619 1667 1367 l1670 1360 -3 815 -2 815 -1995 1628
c-1097 895 -2009 1638 -2026 1652 l-31 24 -609 -290 -609 -289 -3 -975 c-1
-536 -4 -975 -7 -975 -3 0 -2972 2428 -3075 2515 -13 11 -115 -34 -625 -276z
m6493 -2919 c611 -498 1110 -908 1109 -912 -1 -4 -533 -440 -1182 -969 -649
-529 -1188 -968 -1197 -977 -17 -14 -18 79 -18 1947 l0 1962 89 -73 c49 -40
589 -480 1199 -978z m0 -7080 c611 -498 1110 -908 1109 -912 -1 -4 -533 -440
-1182 -969 -649 -529 -1188 -968 -1197 -977 -17 -14 -18 79 -18 1947 l0 1962
89 -73 c49 -40 589 -480 1199 -978z"/>
</g>
</svg>
